<svg xmlns="http://www.w3.org/2000/svg" viewBox="0 0 256 256" role="img" aria-labelledby="title">
  <title>Reddit Wallpaper Changer icon</title>
  <defs>
    <linearGradient id="sky" x1="46" y1="24" x2="210" y2="220" gradientUnits="userSpaceOnUse">
      <stop offset="0" stop-color="#64B5F6"/>
      <stop offset="0.5" stop-color="#2F7DD3"/>
      <stop offset="1" stop-color="#1F3F7A"/>
    </linearGradient>
    <linearGradient id="sun" x1="172" y1="50" x2="205" y2="91" gradientUnits="userSpaceOnUse">
      <stop offset="0" stop-color="#FFE082"/>
      <stop offset="1" stop-color="#FF7043"/>
    </linearGradient>
    <linearGradient id="hillFront" x1="51" y1="150" x2="207" y2="220" gradientUnits="userSpaceOnUse">
      <stop offset="0" stop-color="#51C783"/>
      <stop offset="1" stop-color="#1E7A58"/>
    </linearGradient>
    <linearGradient id="hillBack" x1="36" y1="139" x2="231" y2="206" gradientUnits="userSpaceOnUse">
      <stop offset="0" stop-color="#BFE36D"/>
      <stop offset="1" stop-color="#4E9A60"/>
    </linearGradient>
    <filter id="shadow" x="-20%" y="-20%" width="140%" height="140%">
      <feDropShadow dx="0" dy="12" stdDeviation="12" flood-color="#10213D" flood-opacity="0.3"/>
    </filter>
  </defs>
  <rect x="22" y="22" width="212" height="212" rx="50" fill="#F8FAFC" filter="url(#shadow)"/>
  <rect x="36" y="36" width="184" height="184" rx="38" fill="url(#sky)"/>
  <circle cx="181" cy="75" r="25" fill="url(#sun)"/>
  <path d="M52 176l42-48 37 41 26-28 47 55v24H52z" fill="url(#hillBack)"/>
  <path d="M36 194l56-58 45 50 28-31 55 63v2H36z" fill="url(#hillFront)"/>
  <path d="M48 58h94a12 12 0 0 1 12 12v56a12 12 0 0 1-12 12H48z" fill="#FFFFFF" opacity="0.18"/>
  <path d="M64 73h56M64 91h73M64 109h42" stroke="#FFFFFF" stroke-width="8" stroke-linecap="round" opacity="0.55"/>
  <path d="M163 142a31 31 0 1 0 29 42l15 15" fill="none" stroke="#FFFFFF" stroke-width="14" stroke-linecap="round" stroke-linejoin="round"/>
  <path d="M191 132v18h18" fill="none" stroke="#FF4500" stroke-width="12" stroke-linecap="round" stroke-linejoin="round"/>
</svg>
